<svg width="20" height="22" fill="none" xmlns="http://www.w3.org/2000/svg"><path d="M0 0h20v22H0z"/><path d="M14.59 5c-.02-.09-.04-.17-.06-.25-.27-1.05-.69-2.2-1.38-3.1C12.44.71 11.41 0 10 0 8.58 0 7.55.71 6.84 1.65c-.69.9-1.11 2.05-1.38 3.1-.02.08-.04.16-.06.25H3.78C2.18 5 .85 6.22.75 7.8L0 18.8C-.12 20.53 1.28 22 3.04 22h13.91c1.76 0 3.16-1.47 3.04-3.2l-.75-11c-.1-1.58-1.43-2.8-3.03-2.8h-1.62zm-8.65 5c.58 0 1.01-.44 1.01-1.01v-.07c0-.05.01-.13.01-.23.01-.21.02-.51.05-.86.02-.26.05-.54.09-.83h5.79c.04.29.07.57.09.83.03.35.04.65.05.86 0 .1.01.18.01.23V9s0 1 1.01 1 1.01-1.01 1.01-1.01v-.37c-.01-.24-.03-.56-.06-.96-.02-.2-.04-.43-.07-.66h1.28c.53 0 .98.4 1.01.93l.74 11c.04.58-.42 1.07-1.01 1.07H3.04c-.59 0-1.05-.49-1.01-1.07l.74-11C2.8 7.4 3.25 7 3.78 7h1.28c-.03.23-.05.46-.07.66-.03.4-.05.72-.06.96v.37c-.01.57.43 1.01 1.01 1.01zm1.55-5h5.01c-.24-.85-.56-1.61-.97-2.16C11.1 2.28 10.61 2 10 2c-.62 0-1.11.28-1.54.84-.41.55-.73 1.31-.97 2.16z" fill="#151618" fill-rule="evenodd"/></svg>