<svg width="22" height="22" fill="none" xmlns="http://www.w3.org/2000/svg"><path d="M19 0c1.65 0 3 1.34 3 3v16c0 1.65-1.35 3-3 3H3c-1.66 0-3-1.35-3-3V3c0-1.66 1.34-3 3-3h16zm0 2c.55 0 1 .44 1 1v16c0 .55-.45 1-1 1h-5v-7h2.07c.43 0 .81-.28.95-.69l.44-1.33c.16-.48-.2-.98-.71-.98H14V8c0-.5.5-1 1-1h2c.55 0 1-.45 1-1v-.69c0-.32-.21-.61-.52-.7-1.31-.34-2.48-.34-2.48-.34-2.5 0-4 1.73-4 3.23V10H9c-.56 0-1 .44-1 1v1c0 .55.44 1 1 1h2v7H3c-.56 0-1-.45-1-1V3c0-.56.44-1 1-1h16z" fill="#151618" fill-rule="evenodd"/></svg>