<svg width="22" height="22" fill="none" xmlns="http://www.w3.org/2000/svg"><path d="M0 9.6c0-3.37 0-5.05.65-6.33A5.927 5.927 0 013.27.65C4.55 0 6.23 0 9.6 0h2.79c3.37 0 5.05 0 6.33.65 1.13.57 2.05 1.49 2.62 2.62C22 4.55 22 6.23 22 9.6v2.79c0 3.37 0 5.05-.66 6.33a5.927 5.927 0 01-2.62 2.62c-1.28.66-2.96.66-6.33.66H9.6c-3.37 0-5.05 0-6.33-.66a5.927 5.927 0 01-2.62-2.62C0 17.44 0 15.76 0 12.39V9.6zM9.6 2h2.79c1.72 0 2.88 0 3.78.07.88.07 1.33.2 1.64.36a4 4 0 011.75 1.75c.16.31.29.76.36 1.64.07.9.08 2.06.08 3.78v2.79c0 1.72-.01 2.88-.08 3.78-.07.88-.2 1.33-.36 1.64a4 4 0 01-1.75 1.75c-.31.16-.76.29-1.64.36-.9.07-2.06.08-3.78.08H9.6c-1.72 0-2.88-.01-3.78-.08-.88-.07-1.33-.2-1.64-.36a4 4 0 01-1.75-1.75c-.16-.31-.29-.76-.36-1.64C2 15.27 2 14.11 2 12.39V9.6c0-1.72 0-2.88.07-3.78.07-.88.2-1.33.36-1.64a4 4 0 011.75-1.75c.31-.16.76-.29 1.64-.36C6.72 2 7.88 2 9.6 2zM17 4c-.56 0-1 .44-1 1 0 .55.44 1 1 1 .55 0 1-.45 1-1 0-.56-.45-1-1-1zm-6 13c3.31 0 6-2.69 6-6 0-3.32-2.69-6-6-6-3.32 0-6 2.68-6 6 0 3.31 2.68 6 6 6zm0-2c2.2 0 4-1.8 4-4a3.999 3.999 0 10-4 4z" fill="#0F0F0F" fill-rule="evenodd"/></svg>