<svg width="31" height="10" fill="none" xmlns="http://www.w3.org/2000/svg"><defs><linearGradient id="a" x1="1425.19" y1="30.059" x2="1701.182" y2="-990.001" gradientUnits="userSpaceOnUse"><stop stop-color="#222357"/><stop offset="1" stop-color="#254AA5"/></linearGradient></defs><path d="M16.03 3.19c-.02 1.39 1.24 2.17 2.19 2.63.98.48 1.3.78 1.3 1.21-.01.65-.78.93-1.5.94-1.26.02-1.99-.34-2.57-.61l-.46 2.12c.59.27 1.67.5 2.79.52 2.63 0 4.35-1.3 4.36-3.31.01-2.56-3.53-2.7-3.51-3.84.01-.34.34-.71 1.06-.81.36-.04 1.35-.08 2.47.43L22.6.42C22 .21 21.22 0 20.26 0c-2.48 0-4.22 1.31-4.23 3.19zM26.83.17c-.48 0-.88.28-1.06.71l-3.76 8.96h2.63l.52-1.44h3.21l.31 1.44H31L28.97.17h-2.14zm.37 2.61l.76 3.64h-2.08l1.32-3.64zM12.84.17l-2.07 9.67h2.5L15.34.17h-2.5zm-3.71 0l-2.6 6.59-1.06-5.6C5.35.53 4.86.17 4.32.17H.05L0 .45c.87.19 1.86.5 2.47.83.37.2.47.37.59.85l2 7.71h2.65L11.76.17H9.13z" fill="url(#a)"/></svg>