<svg width="29" height="12" fill="none" xmlns="http://www.w3.org/2000/svg"><defs><clipPath id="a"><path fill="#fff" fill-opacity="0" d="M0 0h29v12H0z"/></clipPath></defs><path d="M0 0h29v12H0z"/><g clip-path="url(#a)"><path d="M20.55 3.23c.8 0 1.41.23 1.89.68.47.45.68 1.05.68 1.81v3.61h-1.01V8.5h-.04c-.43.68-1.05 1.02-1.77 1.02-.62 0-1.16-.19-1.6-.57-.4-.37-.65-.9-.65-1.46 0-.61.22-1.1.65-1.47.44-.38 1.05-.53 1.78-.53.65 0 1.16.11 1.56.38V5.6c0-.35-.13-.7-.38-.93l-.06-.04c-.29-.27-.65-.42-1.05-.42-.61 0-1.09.27-1.41.79l-.94-.6c.58-.79 1.34-1.17 2.35-1.17zM15.44.67c.65 0 1.27.24 1.76.68l.09.08c.51.45.76 1.13.76 1.84 0 .72-.25 1.36-.76 1.85-.51.48-1.12.75-1.85.75l-1.74-.04v3.5h-1.08V.67h2.82zm5.26 5.72c-.44 0-.8.12-1.09.34-.29.19-.44.46-.44.79 0 .31.15.57.37.72.25.19.54.3.83.3.41 0 .81-.16 1.13-.46l.07-.07c.36-.34.54-.75.54-1.2-.33-.26-.8-.42-1.41-.42zm-5.19-4.66H13.7v3.01h1.81c.4 0 .8-.15 1.06-.45.57-.57.57-1.51.03-2.07l-.03-.04c-.29-.3-.66-.49-1.06-.45zM29 3.42l-3.59 8.54h-1.09l1.34-2.97-2.35-5.53h1.16l1.7 4.25h.03l1.67-4.25H29v-.04z" fill="#5F6368"/><path d="M9.39 5.08c0-.34-.04-.68-.07-1.02H4.79v1.92h2.57c-.11.6-.43 1.17-.94 1.51v1.24h1.56c.9-.87 1.41-2.15 1.41-3.65z" fill="#4285F4"/><path d="M4.79 9.93c1.3 0 2.39-.45 3.19-1.2L6.42 7.49c-.44.3-.98.49-1.63.49-1.23 0-2.32-.87-2.68-2.07H.51v1.28c.83 1.69 2.47 2.74 4.28 2.74z" fill="#34A853"/><path d="M2.11 5.91c-.22-.61-.22-1.28 0-1.92V2.71H.51c-.69 1.39-.69 3.05 0 4.48l1.6-1.28z" fill="#FBBC04"/><path d="M4.79 1.95c.69 0 1.34.27 1.85.76l1.37-1.43C7.14.45 5.98-.04 4.82 0 3.01 0 1.34 1.05.55 2.74l1.59 1.28c.33-1.2 1.42-2.07 2.65-2.07z" fill="#EA4335"/></g></svg>