<svg width="10" height="12" fill="none" xmlns="http://www.w3.org/2000/svg"><defs><clipPath id="a"><path fill="#fff" fill-opacity="0" d="M0 0h10v12H0z"/></clipPath></defs><path d="M0 0h10v12H0z"/><g clip-path="url(#a)"><path d="M8.48.93C7.93.3 6.95.03 5.69.03H2.04c-.13 0-.25.04-.34.12-.1.09-.16.2-.18.33L0 10.29c-.03.19.12.37.31.37h2.26L3.13 7l-.02.12c.04-.26.26-.45.52-.45H4.7c2.11 0 3.75-.87 4.24-3.39l.03-.21c.15-.93 0-1.57-.49-2.14z" fill="#27346A"/><path d="M3.99 2.73c.07-.03.13-.05.2-.05h2.87c.34 0 .65.03.94.07.08.02.16.03.24.05.12.03.23.06.34.09.14.05.27.11.39.18.15-.94 0-1.57-.49-2.14C7.93.3 6.95.03 5.69.03H2.04c-.26 0-.48.19-.52.45L0 10.29c-.03.19.12.37.31.37h2.26l1.17-7.58c.01-.08.04-.15.09-.21.04-.06.1-.11.16-.14z" fill="#27346A"/><path d="M8.94 3.28C8.45 5.8 6.81 6.67 4.7 6.67H3.63c-.26 0-.48.19-.52.45l-.7 4.54c-.03.17.1.32.27.32h1.9c.11 0 .22-.03.3-.11.08-.07.14-.17.15-.28l.02-.1.36-2.31.02-.12c.02-.11.08-.21.16-.28.08-.08.19-.12.3-.12h.28c1.84 0 3.28-.76 3.7-2.96.18-.92.09-1.69-.38-2.23-.14-.16-.31-.29-.52-.4l-.03.21z" fill="#2790C3"/><path d="M8.47 2.86l-.23-.06c-.08-.02-.16-.03-.24-.04-.29-.05-.6-.08-.94-.08H4.19c-.07 0-.13.02-.19.05a.39.39 0 00-.17.14c-.05.06-.08.13-.09.21L3.13 7l-.02.12c.04-.26.26-.45.52-.45H4.7c2.11 0 3.75-.87 4.24-3.39l.03-.21c-.12-.07-.25-.13-.39-.17a.487.487 0 00-.11-.04z" fill="#1F264F"/></g></svg>