<svg width="26" height="20" fill="none" xmlns="http://www.w3.org/2000/svg"><defs><clipPath id="a"><path fill="#fff" fill-opacity="0" d="M0 0h26v20H0z"/></clipPath></defs><path d="M0 0h26v20H0z"/><g clip-path="url(#a)"><path d="M4.72 19.9v-1.33c0-.51-.31-.84-.85-.84-.26 0-.55.09-.75.38a.8.8 0 00-.72-.38c-.22 0-.44.07-.62.31v-.26h-.47v2.12h.47v-1.17c0-.38.2-.56.51-.56s.47.2.47.56v1.17h.47v-1.17c0-.38.22-.56.51-.56.31 0 .47.2.47.56v1.17h.51zm6.94-2.12h-.76v-.64h-.47v.64h-.42v.42h.42v.97c0 .48.2.77.74.77.2 0 .42-.07.57-.15l-.13-.4c-.13.09-.29.11-.4.11-.22 0-.31-.13-.31-.35v-.95h.76v-.42zm3.96-.05a.64.64 0 00-.55.31v-.26h-.47v2.12h.47v-1.2c0-.35.15-.55.44-.55.09 0 .2.02.29.05l.14-.44c-.09-.03-.23-.03-.32-.03zm-5.99.22c-.23-.15-.54-.22-.87-.22-.54 0-.89.27-.89.69 0 .35.26.55.73.62l.22.02c.25.04.38.11.38.22 0 .15-.18.26-.49.26s-.55-.11-.71-.22l-.22.36c.24.17.58.26.91.26.62 0 .98-.29.98-.68 0-.38-.29-.58-.73-.64l-.23-.03c-.2-.02-.35-.06-.35-.19 0-.16.15-.25.4-.25.26 0 .53.11.67.18l.2-.38zm12.44-.22c-.27 0-.45.14-.56.31v-.26h-.47v2.12h.47v-1.2c0-.35.16-.55.45-.55.09 0 .2.02.29.05l.13-.44c-.09-.03-.22-.03-.31-.03zm-5.98 1.11c0 .64.45 1.1 1.14 1.1.31 0 .53-.07.76-.24l-.23-.38c-.17.13-.35.2-.55.2-.38 0-.65-.26-.65-.68 0-.4.27-.67.65-.69.2 0 .38.07.55.2l.23-.37c-.23-.18-.45-.25-.76-.25-.69 0-1.14.47-1.14 1.11zm4.33 0v-1.06h-.47v.26a.813.813 0 00-.67-.31c-.6 0-1.07.47-1.07 1.11 0 .64.47 1.1 1.07 1.1.31 0 .54-.11.67-.31v.27h.47v-1.06zm-1.72 0c0-.38.25-.69.65-.69.38 0 .64.29.64.69 0 .37-.26.68-.64.68a.655.655 0 01-.65-.68zm-5.6-1.11c-.62 0-1.07.44-1.07 1.11 0 .66.45 1.1 1.1 1.1.31 0 .62-.09.87-.29l-.23-.33c-.17.13-.4.22-.62.22-.29 0-.58-.13-.65-.5h1.59v-.18c.02-.69-.38-1.13-.99-1.13zm0 .4c.29 0 .5.18.54.51h-1.11c.04-.29.24-.51.57-.51zm11.62.71v-1.9h-.47v1.1c-.15-.2-.38-.31-.67-.31-.6 0-1.07.47-1.07 1.11 0 .64.47 1.1 1.07 1.1.32 0 .54-.11.67-.31v.27h.47v-1.06zm-1.72 0c0-.38.25-.69.65-.69.38 0 .65.29.65.69 0 .37-.27.68-.65.68a.655.655 0 01-.65-.68zm-15.65 0v-1.06h-.47v.26c-.15-.2-.37-.31-.66-.31-.61 0-1.07.47-1.07 1.11 0 .64.46 1.1 1.07 1.1.31 0 .53-.11.66-.31v.27h.47v-1.06zm-1.74 0c0-.38.25-.69.65-.69.38 0 .65.29.65.69 0 .37-.27.68-.65.68a.655.655 0 01-.65-.68z" fill="#151618"/><path d="M9.47 1.69h7.02v12.49H9.47V1.69z" fill="#FF5F00"/><path d="M9.92 7.94c0-2.54 1.2-4.79 3.05-6.25A8.024 8.024 0 008.02 0C3.58 0 0 3.55 0 7.94c0 4.39 3.58 7.94 8.02 7.94 1.87 0 3.59-.64 4.95-1.7a7.896 7.896 0 01-3.05-6.24z" fill="#EB001B"/><path d="M25.97 7.94c0 4.39-3.59 7.94-8.03 7.94-1.87 0-3.59-.64-4.95-1.7a7.846 7.846 0 003.06-6.24c0-2.54-1.21-4.79-3.06-6.25A8.024 8.024 0 0117.94 0c4.44 0 8.03 3.57 8.03 7.94z" fill="#F79E1B"/></g></svg>