<svg width="20" height="21" fill="none" xmlns="http://www.w3.org/2000/svg"><path d="M14.76 20.72c-2.02-.51-6.16-1.93-9.9-5.68C1.11 11.29-.32 7.15-.83 5.13c-.29-1.16.24-2.28 1.12-2.91L2.62.55a3 3 0 014.21.74L8.3 3.4c.62.9.41 2.14-.48 2.77l-1.17.84c.17.67.72 2.06 2.45 3.78 1.72 1.73 3.11 2.28 3.79 2.45l.83-1.16c.64-.89 1.87-1.11 2.77-.49l2.11 1.47a3 3 0 01.74 4.21l-1.66 2.33c-.64.89-1.76 1.41-2.92 1.12zm-8.49-7.1c3.41 3.41 7.17 4.71 8.98 5.16.26.07.58-.04.8-.34l1.66-2.33a1 1 0 00-.24-1.41l-2.12-1.46-.9 1.25c-.36.52-1.04.92-1.83.75-.98-.21-2.8-.9-4.94-3.03-2.13-2.14-2.81-3.96-3.02-4.94-.17-.79.23-1.46.74-1.83l1.25-.9-1.46-2.11c-.32-.46-.95-.57-1.41-.25L1.46 3.84c-.31.22-.41.54-.35.81.46 1.8 1.75 5.56 5.16 8.97z" fill="#151618" fill-rule="evenodd"/></svg>