<svg width="60" height="60" fill="none" xmlns="http://www.w3.org/2000/svg"><path d="M25.55.15l-.01-.02-.04.03C11.17 1.68 0 13.82 0 28.58c0 6.61 2.24 12.7 6 17.54v.01h.01a28.26 28.26 0 008.75 7.49 28.48 28.48 0 0011.01 3.42c.13-1.36.46-2.79.96-4.22a24.206 24.206 0 01-16.08-7.83c.16-.68.23-1.48.28-2.17l.03-.34c.05-.63.1-1.23.18-1.85.2-1.5.54-2.51 1.08-3.08.68-.73 1.38-.86 2.85-1.12l.27-.04c.75-.14 1.76-.34 2.73-.87 1.04-.56 1.92-1.43 2.58-2.7.66-1.28.61-2.6.43-3.64-.17-.84-.39-1.66-.66-2.47-.04-.14-.09-.28-.13-.42-.58-1.91-.66-2.84-.17-3.58.52-.8 1.24-.98 3.12-1.47l.24-.06c1.9-.49 4.48-1.31 5.97-4.49 1.61-3.45.7-7.34-.29-9.97-.31-.83-.67-1.64-1.06-2.43.15-.01.3-.01.45-.01 4.58 0 9.07 1.3 12.95 3.75-.55.73-1.28 1.69-2.1 2.71-1.8 2.25-3.83 4.57-5.21 5.61-.64.46-1.12 1.11-1.39 1.85-.23.67-.28 1.4-.16 2.1.2 1.19.83 2.3 1.39 3.16.47.71 1.02 1.42 1.48 2.03l.31.41c.27.36.49.65.65.91a5 5 0 01.18.29c.04.07.06.11.06.11.11.32.24.83.38 1.55l.06.3c1.27-.56 2.64-1 4.11-1.27-.12-.7-.3-1.39-.53-2.06-.32-.85-1-1.76-1.49-2.41l-.37-.49c-.44-.56-.86-1.14-1.25-1.73-.45-.67-.66-1.14-.73-1.42 1.85-1.44 4.13-4.11 5.85-6.25.85-1.06 1.6-2.05 2.16-2.8a24.232 24.232 0 017.88 16.63c1.66.13 3.09.35 4.31.6C56.71 12.41 44.08 0 28.55 0c-1.01 0-2.01.05-3 .15zM6.95 39.68c-1.7-3.32-2.62-6.99-2.67-10.73-.06-3.73.74-7.43 2.35-10.8 1.6-3.37 3.95-6.33 6.88-8.64a24.16 24.16 0 019.99-4.7c.65 1.09 1.2 2.23 1.65 3.42.9 2.39 1.26 4.83.42 6.63-.64 1.37-1.56 1.75-3.16 2.17l-.47.11c-1.51.37-3.91.95-5.4 3.21-1.72 2.61-.87 5.47-.34 7.19l.17.55c.23.73.4 1.29.49 1.82.11.62.03.85-.01.93-.29.55-.57.78-.82.91-.32.18-.73.29-1.44.41-.11.03-.24.05-.37.07-1.32.21-3.42.56-5.13 2.4-1.39 1.48-1.9 3.46-2.14 5.05zm21.62 18.08c.17-2.76 1.41-6.12 3.52-9.3.68-1.16 1.52-2.33 2.53-3.48a25.36 25.36 0 0112.84-7.86c.37-.09.68-.33.88-.65.19-.33.25-.72.16-1.08-.09-.37-.33-.69-.65-.88-.33-.2-.72-.26-1.09-.17a28.31 28.31 0 00-14.29 8.76c-.76.87-1.45 1.77-2.07 2.69-.28-.94-.42-1.93-.42-2.91 0-2.62 1.33-5.47 3.44-7.73a15.18 15.18 0 019.13-4.67c7.99-1.06 12.95-.17 15.88.65.4.11.75.33 1.02.64.28.31.46.69.52 1.09.06.41.01.82-.16 1.2-.16.38-.43.7-.78.92-.16.11-.42.37-.74.97-.37.76-.68 1.55-.91 2.36-.25.81-.49 1.69-.74 2.65l-.17.6c-.32 1.18-.67 2.43-1.09 3.68-.83 2.46-2.01 5.09-3.99 7.11-2.05 2.1-4.84 3.4-8.56 3.4-3.8 0-6.45-1.54-8.14-3.31-1.16 2.12-1.75 4.11-1.85 5.58-.04.56-.3 1.08-.73 1.45-.42.37-.97.56-1.53.52a2.137 2.137 0 01-2.01-2.23z" fill="#754E29"/></svg>