<svg width="65" height="64" fill="none" xmlns="http://www.w3.org/2000/svg"><path d="M32 1.98c1.13 0 2.24.26 3.23.76l25.05 12.71c.52.26.95.65 1.26 1.12.3.46.46 1 .46 1.54v25.07a5.701 5.701 0 01-.93 3.08c-.6.94-1.47 1.71-2.5 2.24L35.23 60.34c-.99.5-2.1.76-3.23.76-1.14 0-2.25-.26-3.24-.76L5.42 48.5c-1.03-.53-1.9-1.3-2.5-2.24-.61-.93-.92-2-.92-3.08V18.11c0-.54.15-1.08.45-1.54.31-.47.74-.86 1.26-1.12L28.76 2.74c.99-.5 2.1-.76 3.24-.76z" stroke="#754E29" stroke-width="4.167" stroke-linejoin="round"/></svg>