<svg width="60" height="60" fill="none" xmlns="http://www.w3.org/2000/svg"><path d="M50.88 16.48c0 1.52-.21 3.03-.63 4.5h4.92c2.67 0 4.83 2.12 4.83 4.75v14.73c0 3.66-1.05 7.25-3.02 10.35-1.97 3.1-4.79 5.59-8.13 7.19a20.026 20.026 0 01-10.76 1.82c-3.69-.4-7.19-1.82-10.1-4.09l-3.6 3.55a2.257 2.257 0 01-1.63.71c-.3.01-.61-.05-.89-.16a2.36 2.36 0 01-.76-.49c-.21-.22-.38-.47-.5-.75-.11-.28-.17-.58-.17-.88.01-.3.08-.6.2-.88.13-.27.31-.52.53-.73l3.6-3.55c-1.21-1.5-2.19-3.17-2.9-4.96a18.5 18.5 0 01-8.01-.16c-2.63-.64-5.07-1.84-7.17-3.53a18.103 18.103 0 01-4.94-6.22A17.782 17.782 0 010 29.97V16.52c0-2.5 2.05-4.54 4.59-4.54h13.5c1-3.45 3.1-6.49 6-8.65C27 1.17 30.53 0 34.17 0h12.34c2.41 0 4.37 1.93 4.37 4.31v12.17zm-28.19-3.95c2.53.63 4.88 1.79 6.91 3.39 2.04 1.6 3.7 3.61 4.88 5.9 1.87-.56 3.81-.85 5.77-.84h5.19c.59-1.43.89-2.96.88-4.5V4.49H34.17c-2.52 0-4.98.77-7.04 2.21-2.05 1.45-3.6 3.48-4.44 5.83zm8.55 39.99c2.26 1.65 4.94 2.64 7.74 2.87 2.8.23 5.61-.31 8.12-1.56 2.51-1.25 4.61-3.16 6.09-5.52 1.47-2.36 2.25-5.08 2.25-7.85V25.73c0-.03-.01-.07-.02-.1a.156.156 0 00-.06-.08.156.156 0 00-.08-.06.355.355 0 00-.1-.02H40.25c-2.81 0-5.57.77-7.96 2.22a15.068 15.068 0 00-5.6 6.01 14.812 14.812 0 00-1.58 8.01c.24 2.76 1.24 5.4 2.91 7.63l12.9-12.72c.21-.22.46-.4.74-.52.28-.12.58-.19.88-.19.31-.01.61.05.9.16.28.11.54.28.75.49.22.22.39.47.51.75.11.28.17.58.16.88 0 .3-.07.6-.2.88-.12.27-.3.52-.52.73l-12.9 12.72zM20.5 40.46c0-1.78.24-3.5.69-5.13l-8.37-8.27c-.23-.21-.41-.45-.53-.73-.13-.28-.19-.57-.2-.88 0-.3.05-.6.17-.88.11-.28.28-.53.5-.74.21-.22.47-.39.76-.5.28-.11.58-.17.89-.16a2.257 2.257 0 011.63.71l7.04 6.95c1.72-2.99 4.21-5.47 7.21-7.2-1.16-2.16-2.9-3.97-5.03-5.23a13.791 13.791 0 00-7.04-1.92H4.58l-.02.01v.02l-.01.01v13.45a13.37 13.37 0 004.93 10.36c1.54 1.27 3.34 2.19 5.28 2.69 1.94.5 3.97.57 5.94.21-.13-.92-.2-1.84-.2-2.77z" fill="#754E29"/></svg>