<svg width="18" height="22" fill="none" xmlns="http://www.w3.org/2000/svg"><path d="M0 0h18v22H0z"/><path d="M14 5.5c0 3.03-2.24 5.5-5 5.5-2.77 0-5-2.47-5-5.5C4 2.46 6.23 0 9 0c2.76 0 5 2.46 5 5.5zm-8 0c0 1.82 1.34 3.3 3 3.3 1.65 0 3-1.48 3-3.3 0-1.83-1.35-3.31-3-3.31-1.66 0-3 1.48-3 3.31zm6.91 7.19a2.63 2.63 0 013.19.41c.38.39.83.89 1.19 1.43.35.52.71 1.22.71 1.97V19c0 1.65-1.35 3-3 3H3c-1.66 0-3-1.35-3-3v-2.5c0-.74.34-1.43.68-1.94.36-.54.8-1.04 1.18-1.42.87-.88 2.21-1.03 3.26-.39.1.06.2.12.29.18.48.3.85.53 1.31.71.52.2 1.2.36 2.28.36 1.08 0 1.75-.16 2.26-.38.41-.17.73-.36 1.14-.61.15-.1.32-.2.51-.32zm1.77 1.83a.612.612 0 00-.75-.11c-.12.08-.25.15-.38.24-.45.27-.95.59-1.53.82-.79.33-1.72.53-3.02.53-1.28 0-2.21-.19-3.01-.5-.65-.25-1.19-.59-1.67-.89-.08-.05-.17-.11-.25-.16a.635.635 0 00-.79.09c-.33.34-.67.73-.93 1.12-.27.41-.35.69-.35.84V19c0 .55.44 1 1 1h12c.55 0 1-.45 1-1v-2.5c0-.15-.09-.44-.37-.86-.26-.39-.61-.79-.95-1.12z" fill="#151618" fill-rule="evenodd"/></svg>