<svg width="22" height="18" fill="none" xmlns="http://www.w3.org/2000/svg"><path d="M18.78 1.2c.35-.08.59-.16.79-.24.28-.12.51-.26.87-.49.31-.19.7-.21 1.03-.04.32.17.53.49.53.85 0 1.04-.14 1.89-.45 2.65-.26.63-.63 1.14-1.07 1.61-.19 3.24-1.16 5.79-2.65 7.72-1.54 2-3.6 3.28-5.76 4-2.16.71-4.44.87-6.48.63-2.03-.24-3.9-.89-5.21-1.87a.951.951 0 01-.31-1.14c.18-.4.62-.64 1.07-.57 1.28.17 2.52-.11 3.54-.51-.2-.11-.39-.22-.57-.34-.92-.62-1.67-1.46-2.01-2.11a.913.913 0 010-.85c.07-.14.17-.26.3-.35C1.04 9.07.5 7.58.5 6.58c0-.3.14-.58.38-.76.1-.08.22-.13.34-.17-.1-.28-.18-.57-.24-.85-.27-1.24-.24-2.64.05-3.76.09-.38.42-.66.83-.72.4-.05.8.13 1 .47C3.94 2.6 5.93 3.7 7.78 4.35c.87.31 1.67.5 2.27.62.13-1.18.48-2.15 1-2.92A4.613 4.613 0 0113.74.16c1.78-.46 3.76.07 5.04 1.04zM9.74 6.88c-.68-.13-1.62-.36-2.65-.72-1.36-.48-2.93-1.22-4.25-2.38.02.21.05.42.1.63.22 1.03.63 1.61 1 1.79.46.22.67.74.49 1.2-.24.62-.87.67-1.44.54.46.66 1.29 1.33 2.67 1.55.48.07.83.47.84.93 0 .47-.34.87-.81.96l-.87.17c.13.11.28.22.43.33.7.46 1.4.66 2 .52.45-.11.93.09 1.14.49.21.41.1.89-.25 1.18-.65.52-1.4.93-2.15 1.28-.36.16-.75.32-1.18.46.33.07.67.12 1.03.17 1.77.21 3.74.06 5.58-.55 1.84-.61 3.53-1.68 4.8-3.32 1.27-1.65 2.16-3.92 2.28-7.01.01-.24.11-.48.29-.65.45-.43.82-.93 1-1.52-.32.1-.68.18-1.11.26-.32.06-.66-.04-.89-.27-.77-.73-2.28-1.22-3.53-.89-.6.15-1.13.48-1.54 1.08-.41.61-.72 1.55-.72 2.99 0 .27-.12.53-.33.71-.5.44-1.34.18-1.93.07z" fill="#0F0F0F" fill-rule="evenodd"/></svg>