<svg width="24" height="18" fill="none" xmlns="http://www.w3.org/2000/svg"><path d="M.95 2.06C0 3.37 0 5.25 0 9c0 3.74 0 5.62.95 6.93.31.43.68.8 1.11 1.11C3.37 18 5.25 18 9 18h6c3.74 0 5.62 0 6.93-.96.43-.31.8-.68 1.11-1.11C24 14.62 24 12.74 24 9c0-3.75 0-5.63-.96-6.94-.31-.43-.68-.8-1.11-1.11C20.62 0 18.74 0 15 0H9C5.25 0 3.37 0 2.06.95c-.43.31-.8.68-1.11 1.11zM15 2H9c-1.92 0-3.2 0-4.17.1-.93.1-1.34.28-1.6.47-.25.18-.48.41-.66.66-.19.26-.37.67-.47 1.6C2 5.8 2 7.08 2 9c0 1.91 0 3.19.1 4.16.1.93.28 1.34.47 1.6.18.25.41.48.66.66.26.19.67.37 1.6.47.97.1 2.25.11 4.17.11h6c1.91 0 3.19-.01 4.16-.11.93-.1 1.34-.28 1.6-.47.25-.18.48-.41.66-.66.19-.26.37-.67.47-1.6.1-.97.11-2.25.11-4.16 0-1.92-.01-3.2-.11-4.17-.1-.93-.28-1.34-.47-1.6-.18-.25-.41-.48-.66-.66-.26-.19-.67-.37-1.6-.47C18.19 2 16.91 2 15 2zM8.49 4.13c.31-.18.69-.18 1 0l7 4A1 1 0 0117 9c0 .35-.2.69-.51.86l-7 4A.99.99 0 018 13V5c0-.36.18-.69.49-.87zM10 11.27L13.98 9 10 6.72v4.55z" fill="#0F0F0F" fill-rule="evenodd"/></svg>